<svg xmlns="http://www.w3.org/2000/svg" version="1.1" xmlns:xlink="http://www.w3.org/1999/xlink" xmlns:svgjs="http://svgjs.dev/svgjs" width="1000" height="750" viewBox="0 0 1000 750"><rect width="1000" height="750" fill="#0b022d"></rect><g transform="matrix(0.834,0,0,0.834,82.49454545454546,115.4193570850203)"><svg viewBox="0 0 396 247" data-background-color="#0b022d" preserveAspectRatio="xMidYMid meet" height="623" width="1000" xmlns="http://www.w3.org/2000/svg" xmlns:xlink="http://www.w3.org/1999/xlink"><g id="tight-bounds" transform="matrix(1,0,0,1,0.2400000000000091,-0.09999999999999432)"><svg viewBox="0 0 395.52 247.2" height="247.2" width="395.52"><g><svg></svg></g><g><svg viewBox="0 0 395.52 247.2" height="247.2" width="395.52"><g transform="matrix(1,0,0,1,39.55199999999999,81.42775761381475)"><svg viewBox="0 0 316.416 84.34448477237049" height="84.34448477237049" width="316.416"><g><svg viewBox="0 0 316.416 84.34448477237049" height="84.34448477237049" width="316.416"><g><svg viewBox="0 0 316.416 84.34448477237049" height="84.34448477237049" width="316.416"><g><svg viewBox="0 0 316.416 84.34448477237049" height="84.34448477237049" width="316.416"><g><svg viewBox="0 0 316.416 84.34448477237049" height="84.34448477237049" width="316.416"><g><svg viewBox="0 0 316.416 84.34448477237049" height="84.34448477237049" width="316.416"><g transform="matrix(1,0,0,1,0,0)"><svg width="316.416" viewBox="1.5 -36.5 159.24000549316406 42.45000076293945" height="84.34448477237049" data-palette-color="#f7fff7"><path d="M14.25-15.15L14.25-15.15 14.25-13.6 33.75-13.6 33.75-15.15Q33.75-16.5 33.52-17.65 33.3-18.8 32.95-19.8L32.95-19.8 29.5-27.95Q28.95-29.25 28.35-30.13 27.75-31 26.35-31L26.35-31 21.45-31Q19.95-31 19.35-30.13 18.75-29.25 18.25-28L18.25-28 15.05-19.8Q14.7-18.8 14.48-17.65 14.25-16.5 14.25-15.15ZM19.9-17.9L22.25-25.5Q22.45-25.95 22.68-26.15 22.9-26.35 23.2-26.35L23.2-26.35 24.45-26.35Q24.75-26.35 24.98-26.15 25.2-25.95 25.4-25.5L25.4-25.5 27.75-17.9 19.9-17.9ZM34.25-4.5L33.75-4.5 33.75-13.1 14.25-13.1 14.25-4.5 13.75-4.5 13.75-15.15Q13.75-16.55 13.98-17.73 14.2-18.9 14.6-20L14.6-20 17.8-28.2Q18.35-29.6 19.05-30.55 19.75-31.5 21.45-31.5L21.45-31.5 26.35-31.5Q28-31.5 28.68-30.55 29.35-29.6 29.95-28.15L29.95-28.15 33.4-20Q33.8-18.9 34.02-17.73 34.25-16.55 34.25-15.15L34.25-15.15 34.25-4.5ZM19.4-1.8L19.4-1.8 19.4-8.8 28.25-8.8 28.25-1.8Q28.25-0.85 28.73-0.43 29.2 0 30.2 0L30.2 0 37.75 0Q38.7 0 39.13-0.43 39.55-0.85 39.55-1.8L39.55-1.8 39.55-15Q39.55-16.5 39.08-18.45 38.6-20.4 37.6-23L37.6-23 33.25-34.35Q32.95-35.2 32.33-35.6 31.7-36 30.75-36L30.75-36 17.3-36Q16.3-36 15.68-35.6 15.05-35.2 14.75-34.35L14.75-34.35 10.4-23Q9.4-20.4 8.93-18.45 8.45-16.5 8.45-15L8.45-15 8.45-1.8Q8.45-0.85 8.88-0.43 9.3 0 10.25 0L10.25 0 17.6 0Q18.55 0 18.98-0.43 19.4-0.85 19.4-1.8ZM19.2 0.05L12.7 5.45Q12.5 5.65 12.08 5.8 11.65 5.95 11.15 5.95L11.15 5.95 3.8 5.95Q2.6 5.95 2.05 5.4 1.5 4.85 1.5 3.65L1.5 3.65 1.5-9.55Q1.5-11.1 1.98-13.08 2.45-15.05 3.5-17.75L3.5-17.75 7.8-29.05Q7.95-29.5 8.18-29.83 8.4-30.15 8.65-30.4L8.65-30.4 8.7-30.45 15.1-35.8Q15.5-36.15 16.05-36.33 16.6-36.5 17.3-36.5L17.3-36.5 30.75-36.5Q31.9-36.5 32.63-36.02 33.35-35.55 33.7-34.55L33.7-34.55 38.05-23.2Q39.1-20.5 39.58-18.53 40.05-16.55 40.05-15L40.05-15 40.05-1.8Q40.05-1.15 39.88-0.7 39.7-0.25 39.35 0.05L39.35 0.05 32.85 5.45Q32.65 5.65 32.23 5.8 31.8 5.95 31.3 5.95L31.3 5.95 23.75 5.95Q22.5 5.95 21.9 5.38 21.3 4.8 21.3 3.65L21.3 3.65 21.3-2.85 19.9-2.85 19.9-1.8Q19.9-1.15 19.73-0.7 19.55-0.25 19.2 0.05L19.2 0.05ZM71.5 5.95L71.5 5.95 46.05 5.95Q44.85 5.95 44.3 5.4 43.75 4.85 43.75 3.65L43.75 3.65 43.75-28.75Q43.75-29.4 43.92-29.85 44.1-30.3 44.45-30.6L44.45-30.6 50.9-36.05Q51.15-36.25 51.57-36.38 52-36.5 52.5-36.5L52.5-36.5 60.25-36.5Q61.45-36.5 62-35.95 62.55-35.4 62.55-34.2L62.55-34.2 62.55-13.85 62.65-13.95 69.1-19.4Q69.35-19.6 69.77-19.73 70.2-19.85 70.7-19.85L70.7-19.85 77.95-19.85Q79.15-19.85 79.7-19.3 80.25-18.75 80.25-17.55L80.25-17.55 80.25-1.8Q80.25-1.15 80.07-0.7 79.9-0.25 79.55 0.05L79.55 0.05 73.05 5.45Q72.85 5.65 72.42 5.8 72 5.95 71.5 5.95ZM52.5 0L77.95 0Q78.9 0 79.32-0.43 79.75-0.85 79.75-1.8L79.75-1.8 79.75-17.55Q79.75-18.5 79.32-18.93 78.9-19.35 77.95-19.35L77.95-19.35 70.7-19.35Q69.75-19.35 69.32-18.93 68.9-18.5 68.9-17.55L68.9-17.55 68.9-9.45 62.05-9.45 62.05-34.2Q62.05-35.15 61.62-35.58 61.2-36 60.25-36L60.25-36 52.5-36Q51.55-36 51.12-35.58 50.7-35.15 50.7-34.2L50.7-34.2 50.7-1.8Q50.7-0.85 51.12-0.43 51.55 0 52.5 0L52.5 0ZM74.55-4.5L56.15-4.5 56.15-31.5 56.65-31.5 56.65-5 74.05-5 74.05-14.85 74.55-14.85 74.55-4.5ZM105 5.95L85.8 5.95Q84.59 5.95 84.05 5.4 83.5 4.85 83.5 3.65L83.5 3.65 83.5-28.75Q83.5-29.4 83.67-29.85 83.84-30.3 84.2-30.6L84.2-30.6 90.65-36.05Q90.9-36.25 91.32-36.38 91.75-36.5 92.25-36.5L92.25-36.5 108.2-36.5Q113.4-36.5 115.84-34.48 118.3-32.45 118.3-28.35L118.3-28.35 118.3-25.95Q118.3-24.2 117.82-22.95 117.34-21.7 116.4-20.95L116.4-20.95 116.25-20.85Q118.95-20.25 120.3-18.28 121.65-16.3 121.65-12.8L121.65-12.8 121.65-8.2Q121.65-5.95 121-4.33 120.34-2.7 119.05-1.6L119.05-1.6 112.59 3.85Q111.34 4.9 109.45 5.43 107.55 5.95 105 5.95L105 5.95ZM92.25 0L111.45 0Q116.4 0 118.77-2 121.15-4 121.15-8.2L121.15-8.2 121.15-12.8Q121.15-16.45 119.59-18.35 118.05-20.25 114.84-20.55L114.84-20.55Q116.34-21.2 117.07-22.53 117.8-23.85 117.8-25.95L117.8-25.95 117.8-28.35Q117.8-32.25 115.45-34.13 113.09-36 108.2-36L108.2-36 92.25-36Q91.3-36 90.87-35.58 90.45-35.15 90.45-34.2L90.45-34.2 90.45-1.8Q90.45-0.85 90.87-0.43 91.3 0 92.25 0L92.25 0ZM109.45-4.5L109.45-4.5 96-4.5 96-31.5 106.15-31.5Q108.2-31.5 109.5-31.08 110.8-30.65 111.5-29.93 112.2-29.2 112.45-28.25 112.7-27.3 112.7-26.2L112.7-26.2 112.7-23Q112.7-21.5 112.17-20.25 111.65-19 109.5-18.45L109.5-18.45Q111.55-18.45 112.84-18.03 114.15-17.6 114.84-16.82 115.55-16.05 115.77-15 116-13.95 116-12.7L116-12.7 116-9.5Q116-8.4 115.75-7.48 115.5-6.55 114.82-5.9 114.15-5.25 112.84-4.88 111.55-4.5 109.45-4.5ZM106.15-31L106.15-31 96.5-31 96.5-18.45 106.15-18.45Q108.2-18.45 109.4-18.82 110.59-19.2 111.22-19.83 111.84-20.45 112.02-21.28 112.2-22.1 112.2-23L112.2-23 112.2-26.2Q112.2-28.2 111.05-29.6 109.9-31 106.15-31ZM101.7-22.1L101.7-27.5 105.95-27.5Q106.9-27.5 107.37-27 107.84-26.5 107.84-25.5L107.84-25.5 107.84-24.1Q107.84-23.1 107.37-22.6 106.9-22.1 105.95-22.1L105.95-22.1 101.7-22.1ZM109.5-17.95L109.5-17.95 96.5-17.95 96.5-5 109.45-5Q113.2-5 114.34-6.23 115.5-7.45 115.5-9.5L115.5-9.5 115.5-12.7Q115.5-14.95 114.37-16.45 113.25-17.95 109.5-17.95ZM101.7-8.5L101.7-14.4 108.2-14.4Q109.15-14.4 109.62-13.93 110.09-13.45 110.09-12.45L110.09-12.45 110.09-10.5Q110.09-9.5 109.62-9 109.15-8.5 108.2-8.5L108.2-8.5 101.7-8.5ZM142.49 5.95L142.49 5.95 134.39 5.95Q133.14 5.95 132.62 5.4 132.09 4.85 132.09 3.65L132.09 3.65 132.09-2.6 124.54-12.7Q123.34-14.3 122.94-15.5 122.54-16.7 122.54-19.15L122.54-19.15 122.54-28.75Q122.54-29.4 122.72-29.85 122.89-30.3 123.24-30.6L123.24-30.6 129.69-36.05Q129.94-36.25 130.37-36.38 130.79-36.5 131.29-36.5L131.29-36.5 138.99-36.5Q140.19-36.5 140.74-35.95 141.29-35.4 141.29-34.2L141.29-34.2 141.29-26Q141.29-25.55 141.34-25.1 141.39-24.65 141.64-24.15L141.64-24.15 142.24-23.3 142.24-28.75Q142.24-29.4 142.42-29.85 142.59-30.3 142.94-30.6L142.94-30.6 149.39-36.05Q149.64-36.25 150.07-36.38 150.49-36.5 150.99-36.5L150.99-36.5 158.44-36.5Q159.64-36.5 160.19-35.95 160.74-35.4 160.74-34.2L160.74-34.2 160.74-24.6Q160.74-22.15 160.34-20.95 159.94-19.75 158.74-18.15L158.74-18.15 151.24-8 151.24-1.8Q151.24-1.15 151.07-0.7 150.89-0.25 150.54 0.05L150.54 0.05 144.04 5.45Q143.84 5.65 143.42 5.8 142.99 5.95 142.49 5.95ZM140.84 0L148.94 0Q149.89 0 150.32-0.43 150.74-0.85 150.74-1.8L150.74-1.8 150.74-8.15 158.34-18.45Q159.44-20 159.84-21.15 160.24-22.3 160.24-24.6L160.24-24.6 160.24-34.2Q160.24-35.15 159.82-35.58 159.39-36 158.44-36L158.44-36 150.99-36Q150.04-36 149.62-35.58 149.19-35.15 149.19-34.2L149.19-34.2 149.19-26Q149.19-25.5 149.14-24.95 149.09-24.4 148.74-23.9L148.74-23.9 146.44-20.3Q146.19-19.85 145.92-19.65 145.64-19.45 145.24-19.45L145.24-19.45 144.74-19.45Q144.34-19.45 144.07-19.65 143.79-19.85 143.54-20.3L143.54-20.3 141.24-23.9Q140.89-24.4 140.84-24.95 140.79-25.5 140.79-26L140.79-26 140.79-34.2Q140.79-35.15 140.37-35.58 139.94-36 138.99-36L138.99-36 131.29-36Q130.34-36 129.92-35.58 129.49-35.15 129.49-34.2L129.49-34.2 129.49-24.6Q129.49-22.3 129.87-21.15 130.24-20 131.39-18.45L131.39-18.45 139.04-8.2 139.04-1.8Q139.04-0.85 139.47-0.43 139.89 0 140.84 0L140.84 0ZM145.49-13.05L145.49-13.05 145.14-13.05 145.14-4.5 144.64-4.5 144.64-13.05 144.14-13.05Q143.04-13.05 142.17-13.55 141.29-14.05 140.49-15.15L140.49-15.15 135.64-21.9Q135.09-22.65 134.99-23.65 134.89-24.65 134.89-25.75L134.89-25.75 134.89-31.5 135.39-31.5 135.39-25.75Q135.39-24.7 135.49-23.78 135.59-22.85 136.09-22.1L136.09-22.1 140.94-15.35Q141.59-14.35 142.44-13.95 143.29-13.55 144.14-13.55L144.14-13.55 145.49-13.55Q146.44-13.55 147.22-13.98 147.99-14.4 148.74-15.35L148.74-15.35 153.74-22.1Q154.24-22.75 154.34-23.73 154.44-24.7 154.44-25.75L154.44-25.75 154.44-31.5 154.94-31.5 154.94-25.75Q154.94-24.65 154.87-23.68 154.79-22.7 154.19-21.9L154.19-21.9 149.19-15.15Q148.39-14.05 147.52-13.55 146.64-13.05 145.49-13.05Z" opacity="1" transform="matrix(1,0,0,1,0,0)" fill="#f7fff7" class="undefined-text-0" data-fill-palette-color="primary" id="text-0"></path></svg></g></svg></g></svg></g></svg></g></svg></g></svg></g></svg></g><g mask="url(#1bb36c1b-b4ae-400f-9dee-f564f634c8d0)"><g transform="matrix(7.381983826126263, 0, 0, 7.381983826126263, 21.976510140368333, 1)"><svg xmlns="http://www.w3.org/2000/svg" xmlns:xlink="http://www.w3.org/1999/xlink" version="1.1" x="0" y="0" viewBox="1.0119999647140503 8.211999893188477 47.625 33.21600341796875" enable-background="new 0 0 50 50" xml:space="preserve" height="33.21600341796875" width="47.625" class="icon-none" data-fill-palette-color="accent" id="none"><g fill="#ad1dec" data-fill-palette-color="accent"><polygon fill="#ad1dec" points="19.937,10.508 17.653,8.212 1.012,24.792 17.647,41.428 19.94,39.135 5.603,24.794  " data-fill-palette-color="accent"></polygon><polygon fill="#ad1dec" points="29.714,10.508 44.046,24.794 29.711,39.135 32.004,41.428 48.637,24.792 32.001,8.212  " data-fill-palette-color="accent"></polygon></g></svg></g></g></svg></g><defs><mask id="84b1bcec-e382-4237-b6b3-216250eec48c"><rect width="640" height="400" fill="white"></rect><rect width="435.072" height="155.20987743326845" fill="black" x="102.464" y="122.39506128336578" id="transform-me" transform="matrix(1,0,0,1,-122.24000000000001,-76.4)"></rect></mask><mask id="2b88604c-ecca-4763-8222-3ba4d942a53a"><rect width="640" height="400" fill="white"></rect><rect width="435.072" height="155.20987743326845" fill="black" x="102.464" y="122.39506128336578" id="transform-me" transform="matrix(1,0,0,1,-122.24000000000001,-76.4)"></rect></mask><mask id="2905d942-10ff-41f3-83b0-fcd2ed4155ba"><rect width="640" height="400" fill="white"></rect><rect width="435.072" height="155.20987743326845" fill="black" x="102.464" y="122.39506128336578" id="transform-me" transform="matrix(1,0,0,1,-122.24000000000001,-76.4)"></rect></mask><mask id="fc098ece-63df-4d40-94c8-41179a4b7280"><rect width="640" height="400" fill="white"></rect><rect width="435.072" height="155.20987743326845" fill="black" x="102.464" y="122.39506128336578" id="transform-me" transform="matrix(1,0,0,1,-122.24000000000001,-76.4)"></rect></mask><mask id="b0cce7d5-abb4-436a-bac8-eddfb492b83f"><rect width="640" height="400" fill="white"></rect><rect width="435.072" height="155.20987743326845" fill="black" x="102.464" y="122.39506128336578" id="transform-me" transform="matrix(1,0,0,1,-122.24000000000001,-76.4)"></rect></mask><mask id="edd0ab09-418f-4b89-b3c9-dc1485447dd1"><rect width="640" height="400" fill="white"></rect><rect width="435.072" height="155.20987743326845" fill="black" x="102.464" y="122.39506128336578" id="transform-me" transform="matrix(1,0,0,1,-122.24000000000001,-76.4)"></rect></mask><mask id="91401e84-36fc-448c-9125-7146e4c5cd54"><rect width="640" height="400" fill="white"></rect><rect width="435.072" height="155.20987743326845" fill="black" x="102.464" y="122.39506128336578" id="transform-me" transform="matrix(1,0,0,1,-122.24000000000001,-76.4)"></rect></mask><mask id="310cf06a-a737-455b-aec4-e06e5b797e48"><rect width="640" height="400" fill="white"></rect><rect width="435.072" height="155.20987743326845" fill="black" x="102.464" y="122.39506128336578" id="transform-me" transform="matrix(1,0,0,1,-122.24000000000001,-76.4)"></rect></mask><mask id="009637a0-258e-4d37-b9fa-958fef1920fb"><rect width="640" height="400" fill="white"></rect><rect width="232.0384" height="82.77860129774318" fill="black" x="203.9808" y="158.6106993511284" id="transform-me" transform="matrix(1,0,0,1,-122.24000000000001,-76.4)"></rect></mask><mask id="84f08258-2c52-4331-b427-664c83885aed"><rect width="640" height="400" fill="white"></rect><rect width="435.072" height="155.20987743326845" fill="black" x="102.464" y="122.39506128336578" id="transform-me" transform="matrix(1,0,0,1,-122.24000000000001,-76.4)"></rect></mask><mask id="c3cbe58d-5a49-4b61-8f5f-40d2ef087ca9"><rect width="640" height="400" fill="white"></rect><rect width="435.072" height="155.20987743326845" fill="black" x="102.464" y="122.39506128336578" id="transform-me" transform="matrix(1,0,0,1,-122.24000000000001,-76.4)"></rect></mask><mask id="b440d014-6b79-415b-81b3-566fe42b95c1"><rect width="640" height="400" fill="white"></rect><rect width="435.072" height="155.20987743326845" fill="black" x="102.464" y="122.39506128336578" id="transform-me" transform="matrix(1,0,0,1,-122.24000000000001,-76.4)"></rect></mask><mask id="198e3856-5405-4f9e-91f5-b10941527e9a"><rect width="640" height="400" fill="white"></rect><rect width="435.072" height="155.20987743326845" fill="black" x="102.464" y="122.39506128336578" id="transform-me" transform="matrix(1,0,0,1,-122.24000000000001,-76.4)"></rect></mask><mask id="889df970-930a-4340-8bac-7dc8961c77f9"><rect width="640" height="400" fill="white"></rect><rect width="435.072" height="155.20987743326845" fill="black" x="102.464" y="122.39506128336578" id="transform-me" transform="matrix(1,0,0,1,-122.24000000000001,-76.4)"></rect></mask><mask id="39132e1a-1daa-4163-b60c-60b82bac4e1b"><rect width="640" height="400" fill="white"></rect><rect width="435.072" height="155.20987743326845" fill="black" x="102.464" y="122.39506128336578" id="transform-me" transform="matrix(1,0,0,1,-122.24000000000001,-76.4)"></rect></mask><mask id="1781eca1-a7b6-4afa-9be2-693dbaf7ff93"><rect width="640" height="400" fill="white"></rect><rect width="435.072" height="155.20987743326845" fill="black" x="102.464" y="122.39506128336578" id="transform-me" transform="matrix(1,0,0,1,-122.24000000000001,-76.4)"></rect></mask><mask id="ca4f9f1e-a6d1-4275-b46e-b31e14f8b5ec"><rect width="640" height="400" fill="white"></rect><rect width="435.072" height="155.20987743326845" fill="black" x="102.464" y="122.39506128336578" id="transform-me" transform="matrix(1,0,0,1,-122.24000000000001,-76.4)"></rect></mask><mask id="f249a058-7955-4a8c-a441-66b084c8ae81"><rect width="640" height="400" fill="white"></rect><rect width="435.072" height="155.20987743326845" fill="black" x="102.464" y="122.39506128336578" id="transform-me" transform="matrix(1,0,0,1,-122.24000000000001,-76.4)"></rect></mask><mask id="3fd1317d-0fe5-4e4e-ac95-aa3ac5aa4421"><rect width="640" height="400" fill="white"></rect><rect width="435.072" height="155.20987743326845" fill="black" x="102.464" y="122.39506128336578" id="transform-me" transform="matrix(1,0,0,1,-122.24000000000001,-76.4)"></rect></mask><mask id="f7cdfef6-c175-4b7a-a9d9-ecee5fea3583"><rect width="640" height="400" fill="white"></rect><rect width="435.072" height="155.20987743326845" fill="black" x="102.464" y="122.39506128336578" id="transform-me" transform="matrix(1,0,0,1,-122.24000000000001,-76.4)"></rect></mask><mask id="1be7c0a0-d5ef-43de-9f82-1d00caaf6746"><rect width="640" height="400" fill="white"></rect><rect width="435.072" height="155.20987743326845" fill="black" x="102.464" y="122.39506128336578" id="transform-me" transform="matrix(1,0,0,1,-122.24000000000001,-76.4)"></rect></mask><mask id="30b37c14-95fe-4828-8dd5-cae552015ec8"><rect width="640" height="400" fill="white"></rect><rect width="435.072" height="155.20987743326845" fill="black" x="102.464" y="122.39506128336578" id="transform-me" transform="matrix(1,0,0,1,-122.24000000000001,-76.4)"></rect></mask><mask id="2d97f17b-286a-49cb-8f1b-8b9b0ea26f99"><rect width="640" height="400" fill="white"></rect><rect width="435.072" height="155.20987743326845" fill="black" x="102.464" y="122.39506128336578" id="transform-me" transform="matrix(1,0,0,1,-122.24000000000001,-76.4)"></rect></mask><mask id="7a0c45ae-cea0-44ec-baa4-a9d1126eff67"><rect width="640" height="400" fill="white"></rect><rect width="435.072" height="155.20987743326845" fill="black" x="102.464" y="122.39506128336578" id="transform-me" transform="matrix(1,0,0,1,-122.24000000000001,-76.4)"></rect></mask><mask id="27ac0f67-a99d-48de-9a5c-6d72aeabc3c6"><rect width="640" height="400" fill="white"></rect><rect width="435.072" height="155.20987743326845" fill="black" x="102.464" y="122.39506128336578" id="transform-me" transform="matrix(1,0,0,1,-122.24000000000001,-76.4)"></rect></mask><mask id="32c5b058-917e-47af-9b68-504ff965c186"><rect width="640" height="400" fill="white"></rect><rect width="435.072" height="155.20987743326845" fill="black" x="102.464" y="122.39506128336578" id="transform-me" transform="matrix(1,0,0,1,-122.24000000000001,-76.4)"></rect></mask><mask id="972af5a8-50eb-4244-848d-7091327bfb4e"><rect width="640" height="400" fill="white"></rect><rect width="435.072" height="155.20987743326845" fill="black" x="102.464" y="122.39506128336578" id="transform-me" transform="matrix(1,0,0,1,-122.24000000000001,-76.4)"></rect></mask><mask id="41d7a3c3-1c8d-4407-94e0-6ee345f969be"><rect width="640" height="400" fill="white"></rect><rect width="232.0384" height="82.77860129774318" fill="black" x="203.9808" y="158.6106993511284" id="transform-me" transform="matrix(1,0,0,1,-122.24000000000001,-76.4)"></rect></mask><mask id="1bb36c1b-b4ae-400f-9dee-f564f634c8d0"><rect width="640" height="400" fill="white"></rect><rect width="348.05760000000004" height="124.16790194661476" fill="black" x="145.97119999999998" y="137.91604902669263" id="transform-me" transform="matrix(1,0,0,1,-122.24000000000001,-76.4)"></rect></mask></defs></svg><rect width="395.52" height="247.2" fill="none" stroke="none" visibility="hidden"></rect></g></svg></g></svg>